<svg width="246" height="246" viewBox="0 0 246 246" fill="none" xmlns="http://www.w3.org/2000/svg">
<g id="piechart">
<g id="chartB" filter="url(#filter0_d_0_116)">
<path d="M227.802 123.202C227.802 180.905 181.024 227.682 123.321 227.682C65.6187 227.682 18.8413 180.905 18.8413 123.202C18.8413 65.4995 65.6187 18.7222 123.321 18.7222C181.024 18.7222 227.802 65.4995 227.802 123.202ZM71.3425 123.202C71.3425 151.91 94.6143 175.181 123.321 175.181C152.029 175.181 175.3 151.91 175.3 123.202C175.3 94.4951 152.029 71.2233 123.321 71.2233C94.6143 71.2233 71.3425 94.4951 71.3425 123.202Z" fill="#FACAC7"/>
</g>
<path id="chartA" d="M123.321 18.7222C145.222 18.7222 166.568 25.6039 184.344 38.3949C202.121 51.1859 215.429 69.2394 222.387 90.0046C229.346 110.77 229.603 133.196 223.124 154.116C216.644 175.035 203.754 193.39 186.276 206.586L154.642 164.686C163.337 158.121 169.749 148.989 172.973 138.582C176.197 128.174 176.069 117.017 172.607 106.686C169.145 96.3557 162.524 87.3741 153.68 81.0105C144.837 74.647 134.217 71.2233 123.321 71.2233V18.7222Z" fill="url(#paint0_linear_0_116)"/>
</g>
<defs>
<filter id="filter0_d_0_116" x="0.841309" y="0.722168" width="244.96" height="244.96" filterUnits="userSpaceOnUse" color-interpolation-filters="sRGB">
<feFlood flood-opacity="0" result="BackgroundImageFix"/>
<feColorMatrix in="SourceAlpha" type="matrix" values="0 0 0 0 0 0 0 0 0 0 0 0 0 0 0 0 0 0 127 0" result="hardAlpha"/>
<feOffset/>
<feGaussianBlur stdDeviation="9"/>
<feComposite in2="hardAlpha" operator="out"/>
<feColorMatrix type="matrix" values="0 0 0 0 0 0 0 0 0 0 0 0 0 0 0 0 0 0 0.15 0"/>
<feBlend mode="normal" in2="BackgroundImageFix" result="effect1_dropShadow_0_116"/>
<feBlend mode="normal" in="SourceGraphic" in2="effect1_dropShadow_0_116" result="shape"/>
</filter>
<linearGradient id="paint0_linear_0_116" x1="123.321" y1="18.7222" x2="180.664" y2="213.104" gradientUnits="userSpaceOnUse">
<stop stop-color="#EF4136"/>
<stop offset="1" stop-color="#B60000"/>
</linearGradient>
</defs>
</svg>
