<svg width="205" height="75" viewBox="0 0 205 75" fill="none" xmlns="http://www.w3.org/2000/svg">
<g id="logo 1" clip-path="url(#clip0_0_55)">
<path id="Vector" d="M19.1077 49.4509C19.5275 49.5701 19.9543 49.6472 20.3741 49.6822C20.7939 49.7173 21.2206 49.7383 21.6404 49.7383C22.6969 49.7383 23.7114 49.6051 24.684 49.3458C25.6565 49.0794 26.573 48.7009 27.4336 48.2103C28.2872 47.7196 29.0568 47.1168 29.7285 46.4089C30.4002 45.7009 30.9459 44.9159 31.3727 44.0537L39.2858 51.2874C38.2853 52.5841 37.1309 53.7477 35.8225 54.778C34.5142 55.8084 33.1078 56.6846 31.5896 57.4065C30.0713 58.1285 28.4761 58.6752 26.8039 59.0397C25.1317 59.4112 23.4106 59.6005 21.6404 59.6005C18.6599 59.6005 15.8543 59.0958 13.2305 58.0864C10.6068 57.0771 8.31194 55.6752 6.3459 53.8808C4.37986 52.0794 2.83362 49.9416 1.70017 47.4603C0.566723 44.979 0 42.2523 0 39.2734C0 36.2313 0.566723 33.4486 1.70017 30.9252C2.83362 28.4089 4.38686 26.264 6.3459 24.4836C8.31194 22.7103 10.6068 21.3294 13.2305 20.3481C15.8543 19.3668 18.6599 18.8762 21.6404 18.8762C23.4036 18.8762 25.1317 19.0654 26.8249 19.4509C28.5111 19.8364 30.1133 20.3832 31.6316 21.1051C33.1498 21.8271 34.5631 22.7033 35.8855 23.7477C37.2008 24.792 38.3623 25.9626 39.3698 27.2523L19.1077 49.4509ZM24.642 29.2009C24.1382 29.0327 23.6485 28.9276 23.1587 28.8785C22.6689 28.8294 22.1652 28.8084 21.6334 28.8084C20.1572 28.8084 18.7648 29.0537 17.4565 29.5444C16.1481 30.035 15.0147 30.736 14.0561 31.6472C13.0906 32.5584 12.335 33.6589 11.7823 34.9416C11.2295 36.2243 10.9497 37.6682 10.9497 39.2734C10.9497 39.6308 10.9706 40.0374 11.0056 40.5C11.0476 40.9556 11.1106 41.4182 11.2015 41.8878C11.2925 42.3575 11.4044 42.8061 11.5374 43.2336C11.6703 43.6682 11.8382 44.0467 12.0481 44.3832L24.642 29.2009Z" fill="#EF4136"/>
<path id="Vector_2" d="M85.4143 58.8785H82.8046L78.6136 53.5934C77.5851 54.4346 76.4937 55.2196 75.3462 55.9486C74.1988 56.6776 72.9954 57.3154 71.729 57.8551C70.4626 58.3948 69.1612 58.8224 67.8319 59.1308C66.5025 59.4392 65.1452 59.6004 63.7739 59.6004C60.7933 59.6004 57.9877 59.0888 55.364 58.0724C52.7402 57.0561 50.4454 55.6402 48.4793 53.8248C46.5133 52.0163 44.967 49.8645 43.8336 47.3832C42.7001 44.9019 42.1334 42.1962 42.1334 39.2733C42.1334 36.3715 42.7001 33.6729 43.8336 31.1776C44.967 28.6822 46.5203 26.5234 48.4793 24.7009C50.4454 22.8785 52.7402 21.4486 55.364 20.4182C57.9877 19.3878 60.7933 18.8691 63.7739 18.8691C64.7254 18.8691 65.7049 18.9392 66.7194 19.0864C67.7339 19.2336 68.7205 19.4649 69.686 19.7874C70.6515 20.1098 71.5541 20.5374 72.3937 21.0631C73.2402 21.5888 73.9469 22.2406 74.5276 23.0047V5.01868H85.4073V58.8785H85.4143ZM74.5346 39.2733C74.5346 37.9276 74.2478 36.6308 73.681 35.3691C73.1143 34.1075 72.3447 32.993 71.3652 32.0257C70.3856 31.0514 69.2452 30.2733 67.9438 29.6846C66.6355 29.0958 65.2501 28.8014 63.7669 28.8014C62.2906 28.8014 60.8983 29.0397 59.5899 29.5233C58.2815 30.007 57.1481 30.6939 56.1896 31.5911C55.224 32.4883 54.4684 33.5888 53.9157 34.8855C53.3629 36.1822 53.0831 37.6402 53.0831 39.2733C53.0831 40.6892 53.3629 42.028 53.9157 43.3037C54.4684 44.5794 55.231 45.6869 56.1896 46.6472C57.1551 47.6075 58.2885 48.3645 59.5899 48.9112C60.8983 49.4649 62.2836 49.7383 63.7669 49.7383C65.2431 49.7383 66.6355 49.4439 67.9438 48.8551C69.2522 48.2663 70.3926 47.4883 71.3652 46.514C72.3377 45.5397 73.1143 44.4252 73.681 43.1705C74.2478 41.9159 74.5346 40.6121 74.5346 39.2733Z" fill="black"/>
<path id="Vector_3" d="M106.383 9.88318C106.383 10.7944 106.194 11.6425 105.809 12.4346C105.425 13.2266 104.907 13.9136 104.249 14.5023C103.591 15.0911 102.822 15.5607 101.933 15.9042C101.052 16.2547 100.107 16.4229 99.1066 16.4229C98.1061 16.4229 97.1616 16.2477 96.28 15.9042C95.3984 15.5537 94.6288 15.0911 93.9851 14.5023C93.3415 13.9136 92.8237 13.2266 92.4389 12.4346C92.0541 11.6425 91.8652 10.7944 91.8652 9.88318C91.8652 8.99299 92.0541 8.15187 92.4389 7.34579C92.8237 6.53972 93.3345 5.8458 93.9851 5.25701C94.6288 4.66823 95.3984 4.20561 96.28 3.85514C97.1616 3.50467 98.1061 3.33646 99.1066 3.33646C100.107 3.33646 101.052 3.51168 101.933 3.85514C102.815 4.20561 103.591 4.66823 104.249 5.25701C104.907 5.8458 105.432 6.53972 105.809 7.34579C106.194 8.14486 106.383 8.99299 106.383 9.88318ZM104.522 58.8785H93.6423V20.3481H104.522V58.8785Z" fill="black"/>
<path id="Vector_4" d="M126.477 58.8785H115.675V30.1332H110.413V20.3481H115.675V18.5117C115.675 16.1355 116.171 13.9065 117.158 11.8178C118.144 9.72898 119.509 7.91356 121.23 6.36449C122.958 4.81542 124.966 3.5958 127.261 2.69861C129.556 1.80141 132.012 1.35281 134.621 1.35281H142.73V11.1379H134.621C133.46 11.1379 132.382 11.3271 131.396 11.6986C130.409 12.0701 129.549 12.5888 128.821 13.2477C128.094 13.9065 127.52 14.6846 127.1 15.5888C126.68 16.486 126.47 17.4673 126.47 18.5187V20.3551H139.722V30.1402H126.477V58.8785Z" fill="black"/>
<path id="Vector_5" d="M154.73 73.5561V63.6659L160.747 63.736C161.803 63.736 162.818 63.5818 163.79 63.2663C164.763 62.9509 165.672 62.5233 166.498 61.9696C167.33 61.4159 168.058 60.764 168.695 60.007C169.331 59.25 169.842 58.4299 170.241 57.5397C169.052 57.9953 167.848 58.4509 166.624 58.9065C165.399 59.3621 164.161 59.5864 162.923 59.5864C160.313 59.5864 157.857 59.1659 155.562 58.3247C153.267 57.4836 151.259 56.292 149.531 54.743C147.803 53.1939 146.446 51.3154 145.459 49.0934C144.473 46.8785 143.976 44.3902 143.976 41.6285V20.3341H154.737V41.6285C154.737 42.9953 154.953 44.1869 155.387 45.2103C155.821 46.2336 156.409 47.0818 157.15 47.7617C157.892 48.4416 158.753 48.9533 159.739 49.2897C160.726 49.6262 161.789 49.7944 162.923 49.7944C164.028 49.7944 165.077 49.5631 166.071 49.0934C167.058 48.6238 167.925 48.007 168.66 47.243C169.401 46.479 169.975 45.6098 170.402 44.6355C170.822 43.6612 171.039 42.6659 171.039 41.6285V20.3341H181.918V54.007C181.89 56.7196 181.31 59.257 180.176 61.6332C179.043 64.0093 177.489 66.0841 175.53 67.8575C173.564 69.6308 171.276 71.0327 168.667 72.0631C166.057 73.0934 163.258 73.6121 160.278 73.6121L154.73 73.5561Z" fill="black"/>
<path id="Vector_6" d="M6.08704 70.3528C6.08704 68.7967 6.96861 67.7313 8.33293 67.7313C9.69727 67.7313 10.5229 68.7477 10.5229 70.2477V70.5631H6.91963C6.94062 71.6005 7.51433 72.2103 8.4029 72.2103C9.08157 72.2103 9.50136 71.8879 9.6343 71.5865L9.65529 71.5444H10.4599L10.4529 71.5795C10.278 72.2594 9.56433 72.9323 8.38891 72.9323C6.95461 72.9393 6.08704 71.9299 6.08704 70.3528ZM6.92663 69.9252H9.69727C9.61331 68.9299 9.06757 68.4603 8.32594 68.4603C7.5843 68.4603 7.01757 68.965 6.92663 69.9252Z" fill="#231F20"/>
<path id="Vector_7" d="M11.5304 70.3388V70.3318C11.5304 68.7547 12.356 67.7313 13.6294 67.7313C14.315 67.7313 14.9167 68.0748 15.1896 68.6145H15.2666V65.8248H16.0782V72.8481H15.2666V72.0491H15.1896C14.8818 72.6098 14.329 72.9393 13.6294 72.9393C12.356 72.9393 11.5304 71.9089 11.5304 70.3388ZM15.2806 70.3388V70.3318C15.2806 69.1682 14.7208 68.4533 13.8113 68.4533C12.8947 68.4533 12.356 69.1612 12.356 70.3318V70.3388C12.356 71.5093 12.9017 72.2173 13.8113 72.2173C14.7208 72.2173 15.2806 71.5023 15.2806 70.3388Z" fill="#231F20"/>
<path id="Vector_8" d="M17.5824 71.0748V67.8224H18.394V70.8785C18.394 71.7827 18.7158 72.2173 19.5205 72.2173C20.402 72.2173 20.8708 71.6776 20.8708 70.7944V67.8224H21.6754V72.8482H20.8708V72.0982H20.7938C20.5489 72.6379 20.0382 72.9393 19.3106 72.9393C18.1631 72.9393 17.5824 72.2664 17.5824 71.0748Z" fill="#231F20"/>
<path id="Vector_9" d="M22.9278 70.3248V70.3177C22.9278 68.7547 23.8164 67.7383 25.2227 67.7383C26.4401 67.7383 27.1677 68.4392 27.3147 69.3364L27.3216 69.3645H26.517L26.51 69.3505C26.3841 68.8528 25.9363 68.4533 25.2157 68.4533C24.3131 68.4533 23.7464 69.1822 23.7464 70.3107V70.3177C23.7464 71.4743 24.3201 72.2173 25.2157 72.2173C25.8874 72.2173 26.3141 71.9159 26.5031 71.3621L26.51 71.3341L27.3077 71.3271L27.3007 71.3762C27.0978 72.2874 26.4261 72.9322 25.2227 72.9322C23.8234 72.9392 22.9278 71.9159 22.9278 70.3248Z" fill="#231F20"/>
<path id="Vector_10" d="M28.2103 71.4463V71.4392C28.2103 70.5421 28.8679 70.0234 30.0364 69.9533L31.4707 69.8621V69.4065C31.4707 68.7897 31.0929 68.4533 30.3442 68.4533C29.7425 68.4533 29.3507 68.6776 29.2178 69.0701L29.2108 69.0841H28.4062L28.4132 69.0561C28.5461 68.271 29.3017 67.7383 30.3722 67.7383C31.5966 67.7383 32.2753 68.3692 32.2753 69.4135V72.8551H31.4707V72.1121H31.3937C31.0789 72.6449 30.5541 72.9392 29.8825 72.9392C28.9309 72.9392 28.2103 72.3575 28.2103 71.4463ZM30.0504 72.2313C30.869 72.2313 31.4707 71.6916 31.4707 70.9696V70.514L30.1343 70.5981C29.3717 70.6472 29.0359 70.9135 29.0359 71.4182V71.4252C29.0359 71.9369 29.4697 72.2313 30.0504 72.2313Z" fill="#231F20"/>
<path id="Vector_11" d="M34.0803 71.5444V68.4953H33.2897V67.8224H34.0803V66.5187H34.9129V67.8224H36.0114V68.4953H34.9129V71.3411C34.9129 71.9299 35.1158 72.1682 35.6406 72.1682C35.7875 72.1682 35.8645 72.1612 36.0114 72.1472V72.8341C35.8505 72.8621 35.7036 72.8832 35.5426 72.8832C34.5071 72.8902 34.0803 72.5047 34.0803 71.5444Z" fill="#231F20"/>
<path id="Vector_12" d="M37.0889 66.2944C37.0889 65.986 37.3408 65.7336 37.6487 65.7336C37.9565 65.7336 38.2084 65.986 38.2084 66.2944C38.2084 66.6028 37.9565 66.8551 37.6487 66.8551C37.3408 66.8551 37.0889 66.6028 37.0889 66.2944ZM37.2359 67.8224H38.0405V72.8481H37.2359V67.8224Z" fill="#231F20"/>
<path id="Vector_13" d="M39.3208 70.3388V70.3318C39.3208 68.7196 40.2024 67.7313 41.6297 67.7313C43.057 67.7313 43.9385 68.7126 43.9385 70.3318V70.3388C43.9385 71.9439 43.057 72.9393 41.6297 72.9393C40.2024 72.9393 39.3208 71.951 39.3208 70.3388ZM43.113 70.3388V70.3318C43.113 69.1402 42.5812 68.4533 41.6297 68.4533C40.6781 68.4533 40.1464 69.1402 40.1464 70.3318V70.3388C40.1464 71.5234 40.6781 72.2173 41.6297 72.2173C42.5812 72.2173 43.113 71.5234 43.113 70.3388Z" fill="#231F20"/>
<path id="Vector_14" d="M45.1979 67.8224H46.0025V68.5794H46.0795C46.3314 68.0467 46.8002 67.7383 47.5348 67.7383C48.6613 67.7383 49.284 68.4042 49.284 69.5958V72.8481H48.4793V69.792C48.4793 68.8878 48.1085 68.4533 47.3109 68.4533C46.5133 68.4533 46.0025 68.993 46.0025 69.8762V72.8481H45.1979V67.8224Z" fill="#231F20"/>
<path id="Vector_15" d="M53.4329 67.8224H54.2445V68.5865H54.3215C54.5454 68.0467 55.0211 67.7313 55.6718 67.7313C56.3505 67.7313 56.8263 68.0888 57.0572 68.6145H57.1341C57.407 68.0818 57.9737 67.7313 58.6664 67.7313C59.6879 67.7313 60.2616 68.3201 60.2616 69.3715V72.8481H59.45V69.5608C59.45 68.8178 59.1141 68.4533 58.4075 68.4533C57.7078 68.4533 57.2531 68.979 57.2531 69.6168V72.8481H56.4484V69.4346C56.4484 68.8388 56.0426 68.4533 55.406 68.4533C54.7483 68.4533 54.2515 69.0281 54.2515 69.736V72.8481H53.4399V67.8224H53.4329Z" fill="#231F20"/>
<path id="Vector_16" d="M61.416 71.4463V71.4392C61.416 70.5421 62.0737 70.0234 63.2421 69.9533L64.6764 69.8621V69.4065C64.6764 68.7897 64.2986 68.4533 63.55 68.4533C62.9483 68.4533 62.5565 68.6776 62.4235 69.0701L62.4165 69.0841H61.6119L61.6189 69.0561C61.7519 68.271 62.5075 67.7383 63.578 67.7383C64.8024 67.7383 65.481 68.3692 65.481 69.4135V72.8551H64.6764V72.1121H64.5995C64.2846 72.6449 63.7599 72.9392 63.0882 72.9392C62.1367 72.9392 61.416 72.3575 61.416 71.4463ZM63.2561 72.2313C64.0747 72.2313 64.6764 71.6916 64.6764 70.9696V70.514L63.3401 70.5981C62.5774 70.6472 62.2416 70.9135 62.2416 71.4182V71.4252C62.2416 71.9369 62.6754 72.2313 63.2561 72.2313Z" fill="#231F20"/>
<path id="Vector_17" d="M66.9644 67.8224H67.776V68.5794H67.8529C68.1048 68.0467 68.5736 67.7383 69.3082 67.7383C70.4347 67.7383 71.0574 68.4042 71.0574 69.5958V72.8481H70.2527V69.792C70.2527 68.8878 69.8819 68.4533 69.0843 68.4533C68.2867 68.4533 67.783 68.993 67.783 69.8762V72.8481H66.9714V67.8224H66.9644Z" fill="#231F20"/>
<path id="Vector_18" d="M72.2258 71.4463V71.4392C72.2258 70.5421 72.8834 70.0234 74.0519 69.9533L75.4862 69.8621V69.4065C75.4862 68.7897 75.1084 68.4533 74.3597 68.4533C73.758 68.4533 73.3662 68.6776 73.2333 69.0701L73.2263 69.0841H72.4217L72.4287 69.0561C72.5616 68.271 73.3172 67.7383 74.3877 67.7383C75.6121 67.7383 76.2908 68.3692 76.2908 69.4135V72.8551H75.4862V72.1121H75.4092C75.0944 72.6449 74.5696 72.9392 73.898 72.9392C72.9464 72.9392 72.2258 72.3575 72.2258 71.4463ZM74.0659 72.2313C74.8845 72.2313 75.4862 71.6916 75.4862 70.9696V70.514L74.1498 70.5981C73.3872 70.6472 73.0514 70.9135 73.0514 71.4182V71.4252C73.0514 71.9369 73.4852 72.2313 74.0659 72.2313Z" fill="#231F20"/>
<path id="Vector_19" d="M77.7321 73.2547L77.7391 73.2477H78.5717L78.5787 73.2547C78.6696 73.6332 79.1104 73.9065 79.8311 73.9065C80.7266 73.9065 81.2584 73.479 81.2584 72.743V71.7266H81.1814C80.8666 72.2804 80.2998 72.5958 79.6142 72.5958C78.3198 72.5958 77.5152 71.5864 77.5152 70.1776V70.1706C77.5152 68.7617 78.3198 67.7383 79.6352 67.7383C80.3418 67.7383 80.8876 68.0888 81.1954 68.6565H81.2514V67.8294H82.063V72.785C82.063 73.9065 81.2024 74.6285 79.8311 74.6285C78.6277 74.6215 77.858 74.0748 77.7321 73.2547ZM81.2864 70.1706V70.1635C81.2864 69.1682 80.7266 68.4533 79.8031 68.4533C78.8725 68.4533 78.3548 69.1682 78.3548 70.1635V70.1706C78.3548 71.1659 78.8725 71.8668 79.8031 71.8668C80.7336 71.8668 81.2864 71.1729 81.2864 70.1706Z" fill="#231F20"/>
<path id="Vector_20" d="M83.3224 70.3528C83.3224 68.7967 84.204 67.7313 85.5683 67.7313C86.9326 67.7313 87.7582 68.7477 87.7582 70.2477V70.5631H84.155C84.176 71.6005 84.7497 72.2103 85.6383 72.2103C86.3169 72.2103 86.7367 71.8879 86.8697 71.5865L86.8906 71.5444H87.6953L87.6883 71.5795C87.5133 72.2594 86.7997 72.9323 85.6243 72.9323C84.19 72.9393 83.3224 71.9299 83.3224 70.3528ZM84.169 69.9252H86.9396C86.8557 68.9299 86.3099 68.4603 85.5683 68.4603C84.8197 68.4603 84.2529 68.965 84.169 69.9252Z" fill="#231F20"/>
<path id="Vector_21" d="M89.0176 67.8224H89.8292V68.5865H89.9061C90.13 68.0467 90.6058 67.7313 91.2565 67.7313C91.9351 67.7313 92.4109 68.0888 92.6418 68.6145H92.7188C92.9916 68.0818 93.5584 67.7313 94.251 67.7313C95.2725 67.7313 95.8462 68.3201 95.8462 69.3715V72.8481H95.0346V69.5608C95.0346 68.8178 94.6988 68.4533 93.9921 68.4533C93.2925 68.4533 92.8377 68.979 92.8377 69.6168V72.8481H92.0331V69.4346C92.0331 68.8388 91.6273 68.4533 90.9906 68.4533C90.3329 68.4533 89.8362 69.0281 89.8362 69.736V72.8481H89.0246V67.8224H89.0176Z" fill="#231F20"/>
<path id="Vector_22" d="M97.0497 70.3528C97.0497 68.7967 97.9312 67.7313 99.2956 67.7313C100.653 67.7313 101.486 68.7477 101.486 70.2477V70.5631H97.8823C97.9033 71.6005 98.477 72.2103 99.3655 72.2103C100.044 72.2103 100.464 71.8879 100.597 71.5865L100.618 71.5444H101.43L101.423 71.5795C101.248 72.2594 100.534 72.9323 99.3585 72.9323C97.9103 72.9393 97.0497 71.9299 97.0497 70.3528ZM97.8893 69.9252H100.66C100.576 68.9299 100.03 68.4603 99.2886 68.4603C98.5469 68.4603 97.9802 68.965 97.8893 69.9252Z" fill="#231F20"/>
<path id="Vector_23" d="M102.738 67.8224H103.549V68.5794H103.626C103.878 68.0467 104.347 67.7383 105.082 67.7383C106.208 67.7383 106.831 68.4042 106.831 69.5958V72.8481H106.019V69.792C106.019 68.8878 105.648 68.4533 104.851 68.4533C104.053 68.4533 103.543 68.993 103.543 69.8762V72.8481H102.731V67.8224H102.738Z" fill="#231F20"/>
<path id="Vector_24" d="M108.608 71.5444V68.4953H107.817V67.8224H108.608V66.5187H109.448V67.8224H110.546V68.4953H109.448V71.3411C109.448 71.9299 109.65 72.1682 110.175 72.1682C110.322 72.1682 110.399 72.1612 110.546 72.1472V72.8341C110.385 72.8621 110.231 72.8832 110.077 72.8832C109.042 72.8902 108.608 72.5047 108.608 71.5444Z" fill="#231F20"/>
<path id="Vector_25" d="M114.429 67.8224H115.241V68.6215H115.318C115.626 68.0608 116.185 67.7313 116.878 67.7313C118.144 67.7313 118.977 68.7617 118.977 70.3318V70.3388C118.977 71.9159 118.151 72.9393 116.878 72.9393C116.192 72.9393 115.591 72.5958 115.318 72.0561H115.241V74.5304H114.429V67.8224ZM118.144 70.3388V70.3318C118.144 69.1612 117.599 68.4533 116.689 68.4533C115.78 68.4533 115.22 69.1682 115.22 70.3318V70.3388C115.22 71.5024 115.78 72.2173 116.689 72.2173C117.599 72.2173 118.144 71.5094 118.144 70.3388Z" fill="#231F20"/>
<path id="Vector_26" d="M120.285 65.8248H121.097V72.8481H120.285V65.8248Z" fill="#231F20"/>
<path id="Vector_27" d="M122.349 71.4463V71.4392C122.349 70.5421 123.007 70.0234 124.175 69.9533L125.61 69.8621V69.4065C125.61 68.7897 125.232 68.4533 124.483 68.4533C123.882 68.4533 123.49 68.6776 123.357 69.0701L123.35 69.0841H122.538L122.545 69.0561C122.678 68.271 123.434 67.7383 124.504 67.7383C125.729 67.7383 126.407 68.3692 126.407 69.4135V72.8551H125.596V72.1121H125.519C125.204 72.6449 124.679 72.9392 124.008 72.9392C123.07 72.9392 122.349 72.3575 122.349 71.4463ZM124.189 72.2313C125.008 72.2313 125.61 71.6916 125.61 70.9696V70.514L124.273 70.5981C123.511 70.6472 123.175 70.9135 123.175 71.4182V71.4252C123.175 71.9369 123.609 72.2313 124.189 72.2313Z" fill="#231F20"/>
<path id="Vector_28" d="M128.219 71.5444V68.4953H127.429V67.8224H128.219V66.5187H129.059V67.8224H130.158V68.4953H129.059V71.3411C129.059 71.9299 129.262 72.1682 129.787 72.1682C129.934 72.1682 130.011 72.1612 130.158 72.1472V72.8341C129.997 72.8621 129.843 72.8832 129.689 72.8832C128.646 72.8902 128.219 72.5047 128.219 71.5444Z" fill="#231F20"/>
<path id="Vector_29" d="M131.697 68.4953H130.864V67.8224H131.697V67.2617C131.697 66.2593 132.2 65.7757 133.152 65.7757C133.348 65.7757 133.523 65.7897 133.691 65.8248V66.4696C133.593 66.4486 133.46 66.4486 133.313 66.4486C132.739 66.4486 132.501 66.736 132.501 67.2827V67.8154H133.642V68.4883H132.501V72.8411H131.69V68.4953H131.697Z" fill="#231F20"/>
<path id="Vector_30" d="M134.341 70.3388V70.3318C134.341 68.7196 135.223 67.7313 136.65 67.7313C138.078 67.7313 138.959 68.7126 138.959 70.3318V70.3388C138.959 71.9439 138.078 72.9393 136.65 72.9393C135.223 72.9393 134.341 71.951 134.341 70.3388ZM138.134 70.3388V70.3318C138.134 69.1402 137.602 68.4533 136.65 68.4533C135.706 68.4533 135.167 69.1402 135.167 70.3318V70.3388C135.167 71.5234 135.699 72.2173 136.65 72.2173C137.602 72.2173 138.134 71.5234 138.134 70.3388Z" fill="#231F20"/>
<path id="Vector_31" d="M140.219 67.8224H141.03V68.5654H141.1C141.289 68.0397 141.758 67.7313 142.437 67.7313C142.59 67.7313 142.758 67.7524 142.842 67.7664V68.5514C142.674 68.5234 142.521 68.5024 142.346 68.5024C141.576 68.5024 141.03 68.993 141.03 69.729V72.8411H140.219V67.8224Z" fill="#231F20"/>
<path id="Vector_32" d="M143.941 67.8224H144.752V68.5865H144.829C145.053 68.0467 145.529 67.7313 146.18 67.7313C146.858 67.7313 147.334 68.0888 147.565 68.6145H147.642C147.908 68.0818 148.482 67.7313 149.174 67.7313C150.196 67.7313 150.769 68.3201 150.769 69.3715V72.8481H149.958V69.5608C149.958 68.8178 149.622 68.4533 148.915 68.4533C148.216 68.4533 147.761 68.979 147.761 69.6168V72.8481H146.949V69.4346C146.949 68.8388 146.544 68.4533 145.907 68.4533C145.249 68.4533 144.752 69.0281 144.752 69.736V72.8481H143.941V67.8224Z" fill="#231F20"/>
<path id="Vector_33" d="M197.129 15.0841C201.093 15.0841 204.307 11.8644 204.307 7.89252C204.307 3.92072 201.093 0.700928 197.129 0.700928C193.165 0.700928 189.95 3.92072 189.95 7.89252C189.95 11.8644 193.165 15.0841 197.129 15.0841Z" stroke="black" stroke-miterlimit="10"/>
<path id="Vector_34" d="M194.176 3.48364H197.863C199.781 3.48364 200.977 4.51402 200.977 6.12617V6.14019C200.977 7.30374 200.305 8.25 199.165 8.60747L201.264 12.1472H199.585L197.682 8.81775H195.632V12.1472H194.183V3.48364H194.176ZM197.724 7.7243C198.836 7.7243 199.487 7.16355 199.487 6.17523V6.16122C199.487 5.20094 198.801 4.61215 197.682 4.61215H195.632V7.71729H197.724V7.7243Z" fill="#231F20"/>
</g>
<defs>
<clipPath id="clip0_0_55">
<rect width="205" height="75" fill="white"/>
</clipPath>
</defs>
</svg>
